PathFileType	4	(X/Y/Z)	D:\TRACE\v60_Jaco2_6-2-23\ArmBody_Mo2_DMP_1-v60.trc
DataRate	CameraRate	NumFrames	NumMarkers	Units	OrigDataRate	OrigDataStartFrame	OrigNumFrames
100.00	100.00	      17	9	mm	100.00	1638	      6551
Frame#	Time	front left toe			Front right toe			aft left toe			aft right toe			Arm			FL body			FR body			AL Body			AR Body			
		X1	Y1	Z1	X2	Y2	Z2	X3	Y3	Z3	X4	Y4	Z4	X5	Y5	Z5	X6	Y6	Z6	X7	Y7	Z7	X8	Y8	Z8	X9	Y9	Z9	

1638	16.370	-80.74416	39.34750	-169.19562	301.75241	97.59956	-164.60162	-45.55028	37.42306	475.37354	318.65170	-20.66558	445.74600	111.80450	1238.59314	-588.34491	25.29743	591.54163	-290.54010	184.73442	590.34613	-296.17734	66.70601	515.69989	649.73608	220.76534	502.37088	645.13843	
1639	16.380	-81.86922	38.99331	-169.22517	305.31024	88.70107	-163.72530	-42.62680	27.62478	476.35025	317.65698	-20.53535	445.55615	110.03637	1238.37354	-588.85199	24.94168	591.13544	-290.48462	183.79399	589.94318	-296.18250	67.16003	515.33984	649.48724	220.98676	502.21631	644.85303	
1640	16.390	-82.60547	38.79490	-169.19716	307.60327	79.95256	-164.47691	-40.35587	18.34246	475.54684	317.48248	-20.26382	445.42542	108.91001	1238.42419	-589.01129	24.34216	590.81036	-290.87430	183.06111	589.92181	-296.65170	67.64951	515.39417	651.07538	220.49753	502.37866	644.62592	
1641	16.400	-83.20421	38.72071	-169.28085	309.63687	71.67477	-165.55362	-39.00766	9.25040	473.42157	316.71710	-20.16029	445.33008	107.51237	1238.55408	-589.09027	23.47825	590.63342	-291.50616	182.27187	590.19965	-297.30569	68.08448	515.03125	650.41608	221.74010	502.19202	643.63300	
1642	16.410	-84.36252	38.62605	-169.46471	309.43524	64.15236	-168.36371	-37.74065	1.26122	470.16107	314.95059	-20.08645	445.11270	105.54642	1238.68250	-589.61823	23.04489	590.65698	-291.92892	182.21988	590.74469	-298.28357	68.25832	514.63660	649.92963	223.08601	502.12717	643.01678	
1643	16.420	-85.23714	38.73101	-169.62587	308.66919	57.67909	-171.71773	-37.20159	-6.22265	466.37555	314.63052	-19.70284	445.09500	103.13036	1238.87268	-590.06158	22.66352	590.81769	-292.71292	181.60190	591.08795	-299.05151	68.89479	514.26404	649.75342	222.09869	501.91223	642.03015	
1644	16.430	-85.86957	38.36539	-169.87172	307.78253	51.76528	-176.35941	-36.87410	-12.75383	461.89417	314.18414	-19.43105	444.98010	99.79765	1239.41589	-590.31464	21.93512	590.98840	-293.56534	180.90056	591.46173	-299.69040	68.94659	513.26440	647.78058	221.99553	501.58124	640.94537	
1645	16.440	-86.61926	38.25830	-169.98132	306.88419	46.64438	-180.63004	-37.57526	-19.01169	457.23993	313.03232	-19.21923	444.70859	97.00210	1239.84424	-591.10297	21.34017	591.16272	-294.64676	180.28139	592.35284	-301.28064	68.75174	512.84088	647.21423	222.27417	501.28458	639.73785	
1646	16.450	-87.66155	38.22978	-170.44025	306.57822	41.16986	-184.80504	-38.15281	-23.47639	452.87860	312.06097	-18.89090	444.49707	94.13091	1240.51074	-591.21515	20.34239	591.35089	-295.80261	179.66765	592.70032	-302.61447	68.95376	512.21497	645.72192	222.20058	501.02103	638.28430	
1647	16.460	-88.53640	38.00330	-170.72946	306.48526	39.08789	-186.58223	-40.34311	-23.27902	453.99963	311.18628	-18.50004	444.18921	91.13197	1241.49817	-591.83319	19.31354	591.42896	-297.28098	178.47035	592.43896	-303.79886	69.63071	512.54034	644.68701	222.40967	501.24310	636.77350	
1648	16.470	-89.64420	37.58700	-171.09340	305.85306	37.30774	-187.49956	-41.59245	-22.40786	453.81778	309.97177	-17.80937	443.93137	88.39384	1242.98083	-593.17029	17.92414	591.38586	-298.46375	177.25766	593.01837	-305.76288	69.64499	513.89636	640.39099	222.80269	502.93188	635.25018	
1649	16.480	-90.50243	37.38528	-171.12773	304.66794	37.11930	-187.29643	-41.13713	-21.19359	454.49423	309.27374	-16.98800	443.71838	85.76530	1244.19873	-595.30731	16.54142	591.67896	-299.55679	175.32660	593.47644	-306.42798	68.90881	515.63025	640.56061	222.39308	505.05255	633.95325	
1650	16.490	-91.24608	39.83070	-173.24162	303.48737	36.60826	-187.17908	-41.25551	-21.17134	454.70639	308.32880	-14.18400	442.31616	83.36687	1244.61548	-598.15338	14.89775	592.35675	-300.43057	174.06070	594.93884	-308.06088	69.03763	517.07831	639.82910	222.95984	506.65784	632.72021	
1651	16.500	-87.28690	44.17417	-172.86711	303.09329	36.22043	-187.68246	-42.90287	-20.91878	454.28137	305.58014	-10.40818	443.44467	81.10666	1244.04150	-600.41742	13.57270	594.10449	-301.11755	172.53099	596.41956	-309.42575	69.04800	517.69745	638.23926	224.12749	506.97705	631.31586	
1652	16.510	-83.78326	50.02833	-171.53796	301.50772	36.00959	-188.01556	-43.85210	-20.33203	453.92703	302.02234	-4.51315	444.58969	78.12339	1242.66309	-601.62634	12.04065	595.40161	-302.53717	171.30862	597.76965	-310.57266	68.97896	518.22668	638.84827	222.75381	507.20691	629.86224	
1653	16.520	-82.80447	60.67096	-172.17773	300.03073	35.41959	-188.99652	-44.74761	-19.86292	453.51614	297.55829	5.46012	443.54547	75.51287	1242.53198	-602.82397	10.61348	596.12408	-303.72086	169.74176	598.87433	-311.99857	69.26144	518.30707	637.31378	222.45746	507.60504	628.36841	
1654	16.530	-84.69693	72.83653	-173.31113	299.43359	34.99866	-188.86650	-45.78587	-19.29561	453.36191	295.11288	18.12261	440.66620	72.54237	1243.67786	-603.67249	9.33036	595.94293	-304.82867	168.25845	598.81201	-313.18179	68.49704	518.80127	636.74994	221.88382	508.44730	627.23627	
